<?xml version="1.0" encoding="UTF-8"?>
<svg width="216" height="230" version="1.1" viewBox="0 0 57.15 60.854" xmlns="http://www.w3.org/2000/svg" xmlns:cc="http://creativecommons.org/ns#" xmlns:dc="http://purl.org/dc/elements/1.1/" xmlns:rdf="http://www.w3.org/1999/02/22-rdf-syntax-ns#">
<g transform="translate(-80.522 -168.51)">
<path fill="#ffffff" d="m116.67 228.96c-0.13919-0.21866-0.69967-0.68179-1.2455-1.0292-0.65656-0.41786-0.96712-0.89254-0.91769-1.4026 0.0411-0.42406-0.015-1.0092-0.12465-1.3002-0.69053-1.8328-0.59412-2.3475 0.66588-3.5551 0.69291-0.66409 1.7286-1.8821 2.3014-2.7067 1.1554-1.6631 1.559-1.8354 1.886-0.8052 0.12116 0.38176 0.92561 1.6522 1.7877 2.8232s1.5674 2.5162 1.5674 2.9892 0.15875 0.95824 0.35278 1.0782c0.55571 0.34345 0.41479 1.221-0.35278 2.1968-0.38806 0.49333-0.70556 1.1697-0.70556 1.5031 0 0.5155-0.37088 0.6061-2.481 0.6061-1.4554 0-2.5856-0.16434-2.734-0.39756zm-19.814-1.0092c-0.20889-0.59924-0.6286-1.3644-0.93268-1.7004-0.42681-0.47162-0.46603-0.7732-0.17198-1.3226 0.20949-0.39144 0.38089-1.0565 0.38089-1.4779s0.45813-1.3446 1.0181-2.0517 1.3697-1.9602 1.7995-2.7848c0.42979-0.82462 0.9059-1.4993 1.058-1.4993 0.15212 0 0.56215 0.43656 0.91118 0.97014 0.34903 0.53357 1.3899 1.7695 2.3132 2.7465 1.6662 1.7632 1.676 1.7878 1.3312 3.3223-0.19105 0.85029-0.26664 1.7563-0.16799 2.0134 0.18513 0.48245 0.0481 0.63909-1.728 1.9758-0.79708 0.59991-1.5766 0.80293-3.2406 0.844-2.1496 0.0531-2.1982 0.0335-2.5708-1.0354zm11.432-5.293c-2.2112-1.3152-5.8146-5.1071-5.802-6.1055 2e-3 -0.17611 0.66066-0.63495 1.4632-1.0196 1.8129-0.86904 4.242-3.1933 4.9068-4.6951 0.62064-1.4021 0.83228-1.413 1.388-0.0713 0.61834 1.4928 3.013 3.7848 5.0132 4.7984l1.695 0.8589-0.60352 0.96259c-1.3816 2.2035-2.8142 3.7739-4.3063 4.7201-1.7131 1.0864-2.6289 1.2209-3.7544 0.55148zm-22.219-8.0736-1.6982-4.662-0.53349 1.1265c-0.29341 0.61956-0.65732 1.1265-0.80866 1.1265-1.0326 0-1.4174-6.7488-0.54599-9.5761l0.50502-1.6386-2.465 1.03 0.25465-1.6981c0.32167-2.1451 1.3078-4.7564 2.4455-6.4754l0.88203-1.3328-0.77745-0.55195c-0.77611-0.55099-0.77395-0.55527 1.2523-2.4875 1.1164-1.0646 2.7637-2.3657 3.6608-2.8915 1.8424-1.0797 5.7094-2.2474 7.4428-2.2474 1.0612 0 1.1542 0.0902 1.1542 1.1192 0 0.91501-0.43436 1.5467-2.3812 3.4628-1.3097 1.289-2.8575 2.6975-3.4396 3.13l-1.0583 0.78632 1.4993-0.72856c0.82461-0.40071 1.4993-0.57799 1.4993-0.39395s-1.3176 2.2113-2.928 4.5051c-3.7957 5.4064-3.8663 5.554-1.6578 3.4649 1.0821-1.0236 1.7483-1.4678 1.5873-1.0583-2.3165 5.8904-2.6931 7.5652-2.6794 11.915 7e-3 2.3718 0.17338 5.2551 0.36862 6.4073 0.19523 1.1522 0.30202 2.1479 0.23731 2.2126-0.0647 0.0647-0.88187-1.9802-1.8159-4.5443zm44.553 2.3534c0.14184-1.1642 0.24534-4.1804 0.22999-6.7028-0.0259-4.2549-0.11093-4.8154-1.1775-7.7611-1.7444-4.8178-1.7464-4.783 0.17027-2.9986 0.93789 0.87312 1.538 1.3494 1.3337 1.0583-3.4698-4.9413-6.1193-8.8347-6.1193-8.992 0-0.10909 0.49101 0.0556 1.0911 0.3659 1.72 0.88947 1.5253 0.41651-0.44819-1.0885-2.5883-1.9739-4.4803-4.4631-4.2617-5.6069 0.14307-0.74841 0.37-0.90627 1.3028-0.90627 3.6308 0 9.2643 2.9418 12.03 6.2822 0.95362 1.1517 0.95637 1.1694 0.21213 1.3641-0.41472 0.10845-0.75404 0.25258-0.75404 0.32028s0.56006 1.142 1.2446 2.3873c1.0521 1.9141 2.5099 6.8232 2.137 7.1961-0.0634 0.0634-0.53342-0.0751-1.0444-0.30793-0.51097-0.23281-1.0019-0.35041-1.091-0.26133-0.0891 0.0891 0.0703 0.93384 0.35427 1.8773 0.61981 2.0595 0.6567 4.3138 0.11475 7.0124-0.43838 2.1829-0.80884 2.473-1.4266 1.1172-0.22101-0.48507-0.51338-0.88195-0.64971-0.88195s-0.77171 1.4684-1.412 3.2632c-0.64023 1.7948-1.3733 3.7394-1.6291 4.3215-0.42547 0.96833-0.44309 0.87832-0.20712-1.0583zm-31.498-3.4043c-1.2823-1.4194-3.4287-5.5641-3.8414-7.4179-0.19087-0.85738-7e-3 -1.0677 1.9949-2.2818 1.2128-0.73556 2.9004-1.977 3.7503-2.7587l1.5452-1.4214 0.55383 0.88094c0.30462 0.48451 1.6334 1.9799 2.9528 3.323s2.3989 2.7385 2.3989 3.1009c0 2.0062-3.0848 5.5025-6.2863 7.1248l-1.7639 0.89382zm17.468 0.52812c-2.6237-1.3131-5.3678-4.1122-5.945-6.0642l-0.45298-1.532 2.1087-1.9082c1.1598-1.0495 2.5344-2.5826 3.0546-3.4069l0.94601-1.4986 1.5359 1.4747c0.84474 0.81106 2.5068 2.0017 3.6935 2.6458 2.1074 1.144 2.1532 1.1999 1.9687 2.4059-0.25954 1.6963-2.3824 5.896-3.7998 7.5171l-1.1694 1.3375zm-8.6892-11.357c-1.7005-1.2318-4.0919-3.9081-4.8017-5.3736l-0.52699-1.0881-0.75769 1.226c-0.92576 1.4979-2.4725 2.7082-5.1214 4.0073-1.7164 0.84178-2.0571 0.90916-2.3395 0.46257-0.29814-0.47151-0.50583-4.0938-0.36371-6.3436 0.19872-3.1458 2.3825-6.9069 5.1956-8.9484 4.7801-3.4689 13.383-4.1438 18.04-1.4151 3.8512 2.257 6.6292 6.2002 7.4954 10.64 0.44516 2.2814 0.27561 5.9228-0.30269 6.5011-0.79995 0.79994-5.4912-2.1696-7.2987-4.6201-0.58208-0.78916-1.138-1.4386-1.2353-1.4432-0.0973-5e-3 -0.54332 0.68221-0.99107 1.5262-0.74736 1.4088-4.8314 5.8738-5.3726 5.8738-0.12797 0-0.85668-0.45203-1.6194-1.0045zm-3.6938-20.083c-0.11056-0.79115 0.13046-3.086 0.60117-5.7238 0.56736-3.1795 2.643-7.3766 4.0098-8.1081 1.086-0.58118 2.0781-0.41421 2.5855 0.43514 0.26083 0.43656 0.97629 1.6336 1.5899 2.6601 1.4717 2.4619 2.1364 4.9898 2.1064 8.0114l-0.0245 2.4694h-4.2698c-2.3484 0-4.7857 0.1151-5.4163 0.25577s-1.1626 0.14067-1.1823 0z" stroke-width=".35278"/>
</g>
</svg>
