<?xml version="1.0" standalone="no"?>
<!DOCTYPE svg PUBLIC "-//W3C//DTD SVG 20010904//EN"
 "http://www.w3.org/TR/2001/REC-SVG-20010904/DTD/svg10.dtd">
<svg version="1.0" xmlns="http://www.w3.org/2000/svg"
 width="920.000000pt" height="920.000000pt" viewBox="0 0 920.000000 920.000000"
 preserveAspectRatio="xMidYMid meet">
<metadata>
Created by potrace 1.11, written by Peter Selinger 2001-2013
</metadata>
<g transform="translate(0.000000,920.000000) scale(0.100000,-0.100000)"
fill="#000000" stroke="none">
<path d="M4577 9167 c-58 -30 -197 -166 -197 -194 0 -7 -4 -13 -10 -13 -5 0
-10 -7 -10 -15 0 -8 -4 -15 -10 -15 -5 0 -10 -6 -10 -14 0 -8 -4 -16 -8 -18
-5 -1 -26 -34 -47 -73 -21 -38 -50 -92 -65 -120 -15 -27 -28 -53 -29 -58 0 -4
-12 -30 -26 -57 -14 -27 -25 -52 -25 -55 -1 -3 -9 -24 -19 -47 -10 -24 -26
-65 -35 -93 -10 -27 -22 -59 -27 -70 -9 -20 -65 -200 -74 -239 -12 -48 -64
-327 -69 -367 -2 -24 -7 -53 -10 -65 -5 -26 -14 -92 -31 -249 -17 -150 -22
-326 -10 -345 6 -9 147 -6 162 3 5 3 40 9 78 13 39 3 84 8 100 10 95 10 457
18 845 18 245 1 447 4 450 8 16 21 2 650 -16 748 -3 14 -6 39 -8 55 -6 41 -16
97 -22 117 -6 19 -15 57 -19 78 -1 8 -5 22 -7 30 -3 8 -12 35 -19 60 -7 25
-13 47 -14 50 -1 3 -5 14 -10 25 -4 11 -21 54 -37 95 -30 75 -102 225 -119
246 -5 6 -6 14 -2 17 3 4 1 7 -5 7 -7 0 -12 4 -12 9 0 7 -17 37 -98 169 -12
20 -32 55 -43 77 -12 22 -25 42 -29 45 -4 3 -22 32 -40 65 -93 169 -132 197
-273 194 -80 -2 -99 -6 -150 -32z"/>
<path d="M4567 6924 c-1 -1 -45 -5 -97 -9 -98 -7 -145 -12 -145 -15 0 -1 -16
-3 -35 -5 -89 -9 -134 -15 -150 -20 -19 -6 -45 -12 -95 -21 -85 -15 -313 -80
-400 -114 -11 -4 -40 -15 -65 -25 -155 -59 -412 -198 -497 -270 -6 -5 -29 -23
-50 -40 -74 -59 -187 -172 -260 -260 -82 -100 -79 -97 -113 -145 -13 -19 -29
-38 -35 -42 -5 -4 -6 -8 -1 -8 5 0 1 -9 -8 -19 -42 -46 -181 -328 -220 -446
-32 -95 -62 -218 -73 -301 -10 -76 -8 -629 2 -754 5 -52 9 -112 9 -132 1 -21
4 -38 9 -38 4 0 7 -13 7 -29 0 -34 23 -93 43 -109 25 -21 61 -20 131 5 74 27
303 136 320 153 5 5 18 10 27 10 10 0 19 4 21 8 2 4 30 23 63 41 59 33 195
120 205 131 3 3 23 18 45 35 79 58 172 153 263 270 14 18 77 119 91 148 8 15
18 27 22 27 4 0 10 12 13 26 6 24 27 31 28 9 0 -6 4 -15 10 -22 5 -7 25 -45
45 -85 31 -65 88 -164 103 -178 3 -3 21 -27 40 -55 19 -27 41 -58 50 -68 105
-128 161 -189 280 -307 151 -150 167 -164 287 -251 150 -109 253 -161 253
-129 0 5 7 10 15 10 8 0 86 71 173 158 139 138 207 211 314 335 15 18 36 41
45 52 10 11 36 43 57 70 22 28 50 61 63 74 13 13 23 29 23 37 0 7 3 14 8 16
13 6 59 73 107 158 26 47 52 87 56 88 5 2 9 10 9 18 0 7 7 22 14 31 8 10 23
29 34 42 l19 24 22 -24 c13 -13 49 -55 80 -94 31 -38 58 -72 61 -75 3 -3 18
-23 35 -45 56 -77 174 -196 302 -305 26 -22 118 -93 143 -110 12 -8 28 -19 34
-25 20 -18 150 -101 211 -135 102 -57 203 -103 255 -115 59 -14 87 -16 119 -7
32 10 39 18 53 59 9 27 20 64 24 83 4 19 8 37 9 40 5 21 16 118 20 179 3 41 7
77 9 80 2 3 0 15 -4 26 -4 11 -4 30 1 42 5 12 4 25 -1 28 -5 3 -5 18 0 34 4
16 6 31 4 34 -3 2 -7 47 -9 98 -6 117 -16 203 -31 284 -3 11 -7 36 -10 55 -3
19 -8 38 -11 43 -2 4 -7 20 -9 35 -5 28 -8 36 -48 162 -86 263 -229 531 -406
755 -76 97 -303 324 -385 385 -33 25 -62 47 -65 50 -24 26 -340 217 -340 205
0 -2 -36 12 -80 31 -44 18 -84 34 -88 34 -4 0 -29 8 -57 16 -27 9 -66 20 -85
24 -141 32 -191 42 -230 46 -25 3 -58 7 -75 9 -105 13 -497 28 -508 19z"/>
<path d="M2567 6814 c-1 -1 -33 -4 -72 -8 -71 -6 -91 -9 -180 -26 -72 -15 -82
-17 -165 -40 -41 -11 -84 -23 -96 -25 -12 -3 -39 -11 -62 -19 -22 -8 -43 -12
-46 -9 -3 4 -6 0 -6 -7 0 -7 -3 -11 -6 -7 -3 3 -47 -10 -97 -28 -261 -95 -384
-159 -567 -294 -38 -28 -172 -133 -180 -141 -3 -3 -36 -32 -75 -65 -38 -33
-89 -78 -111 -100 -23 -22 -82 -79 -130 -126 -49 -47 -102 -104 -118 -127 -35
-51 -29 -74 31 -118 21 -16 40 -31 43 -34 3 -3 24 -18 47 -34 47 -32 47 -32
33 -49 -23 -27 -170 -257 -170 -266 0 -5 -3 -11 -8 -13 -14 -6 -137 -264 -173
-366 -11 -32 -23 -64 -27 -72 -3 -8 -6 -19 -7 -25 0 -5 -3 -14 -7 -20 -6 -10
-46 -140 -54 -176 -2 -11 -6 -27 -8 -36 -13 -53 -36 -165 -35 -171 1 -4 0 -9
-1 -12 -4 -10 -8 -38 -15 -96 -3 -32 -11 -81 -16 -108 -5 -27 -9 -50 -9 -52 0
-7 79 25 133 53 15 8 27 12 27 9 0 -3 30 9 67 26 151 68 149 67 138 41 -4 -10
-8 -25 -10 -33 -2 -8 -4 -15 -5 -15 -1 0 -3 -8 -5 -17 -3 -17 -32 -111 -42
-138 -3 -8 -8 -24 -10 -35 -8 -38 -11 -50 -13 -50 -2 0 -9 -37 -26 -135 -37
-224 -37 -694 1 -939 20 -129 38 -200 66 -257 49 -97 94 -63 196 148 24 49 43
92 43 97 0 5 6 13 13 19 9 8 24 -23 65 -136 29 -81 57 -156 62 -167 10 -24 22
-57 25 -67 2 -5 3 -9 5 -10 1 -2 3 -10 5 -18 2 -8 22 -64 45 -125 23 -60 51
-137 62 -170 11 -33 25 -71 31 -85 6 -14 11 -27 12 -30 1 -3 5 -14 9 -25 4
-11 24 -63 43 -115 20 -52 44 -115 55 -139 10 -24 18 -48 18 -52 0 -5 9 -28
19 -52 11 -23 33 -72 50 -110 16 -37 32 -67 35 -67 3 0 3 21 1 48 -12 117 -16
158 -20 177 -2 11 -7 36 -10 55 -2 19 -7 46 -9 60 -48 281 -70 1311 -33 1485
3 11 8 47 11 80 8 69 31 185 52 265 9 30 17 66 20 80 3 14 19 68 36 120 16 52
31 100 33 105 1 6 7 23 13 38 7 16 12 32 12 36 0 4 39 111 86 237 48 126 95
251 105 279 11 27 19 53 19 58 0 20 -112 -58 -191 -133 -14 -14 -68 -63 -119
-110 -51 -47 -98 -90 -104 -96 -6 -6 -21 -16 -33 -23 -21 -11 -22 -10 -10 16
14 32 26 51 111 178 33 50 65 93 70 97 6 4 7 8 2 8 -5 0 -2 8 7 18 8 9 56 76
106 147 49 72 94 135 98 140 4 6 33 46 62 90 30 44 59 82 63 83 4 2 8 8 8 13
0 6 18 34 40 64 22 30 40 59 40 65 0 5 3 10 8 10 4 0 20 21 37 48 16 26 32 49
35 52 12 11 60 90 60 99 0 5 4 11 9 13 12 4 136 205 145 235 6 19 3 21 -21 19
-34 -3 -133 -35 -150 -49 -7 -5 -13 -7 -13 -5 0 3 -53 -21 -117 -53 -64 -32
-118 -57 -119 -56 -1 1 43 37 99 79 105 80 123 95 267 226 276 252 560 542
560 571 0 5 4 11 8 13 16 6 60 95 69 138 5 25 9 70 8 100 -3 112 -18 130 -118
140 -32 3 -59 5 -60 4z"/>
<path d="M6538 6794 c-31 -13 -41 -25 -56 -67 -12 -31 -18 -69 -16 -96 10
-131 145 -340 355 -550 67 -67 158 -151 164 -151 2 0 15 -10 28 -22 13 -13 32
-30 43 -38 10 -8 39 -31 64 -50 25 -19 47 -37 50 -40 3 -4 15 -13 27 -21 46
-32 151 -131 149 -142 -1 -10 -11 -19 -18 -16 -2 0 -10 2 -18 4 -8 1 -55 22
-105 45 -164 77 -175 81 -181 65 -3 -8 1 -24 10 -37 9 -13 72 -106 139 -208
178 -267 320 -474 329 -478 4 -2 8 -9 8 -15 0 -7 11 -25 25 -41 14 -16 25 -33
25 -37 0 -4 6 -14 13 -21 14 -13 113 -156 133 -189 6 -10 18 -27 26 -36 8 -10
44 -61 79 -113 35 -52 67 -97 70 -100 13 -12 58 -84 54 -88 -4 -4 -92 70 -195
164 -30 28 -71 66 -90 83 -65 60 -117 92 -128 78 -10 -12 20 -160 37 -181 5
-6 12 -27 16 -46 4 -19 12 -41 19 -49 6 -8 10 -15 8 -15 -2 -1 -1 -8 2 -16 15
-50 39 -119 76 -220 99 -273 167 -491 168 -540 0 -8 3 -26 7 -40 3 -14 8 -47
11 -75 2 -27 7 -69 9 -93 2 -23 7 -47 10 -52 3 -6 2 -10 -3 -10 -6 0 -7 -13
-3 -33 8 -35 6 -957 -3 -1122 -8 -167 -19 -301 -31 -385 -11 -79 -15 -170 -8
-170 5 0 14 12 20 28 7 15 24 54 39 87 25 57 187 487 215 570 7 22 12 43 11
48 -1 4 3 7 8 7 6 0 10 6 10 12 0 21 89 255 136 356 13 29 24 57 24 62 0 6 4
10 9 10 5 0 12 11 15 25 14 53 54 22 107 -83 89 -175 131 -185 179 -42 26 78
59 226 66 294 3 28 8 54 12 60 3 6 7 26 8 46 1 19 6 73 10 120 10 109 10 306
1 390 -15 130 -18 148 -33 210 -3 14 -7 34 -8 45 -2 11 -4 20 -5 20 -2 0 -4 7
-6 15 -1 8 -17 67 -34 130 -17 63 -32 132 -34 152 -5 43 11 63 42 53 12 -3 32
-8 46 -11 14 -2 49 -15 78 -28 73 -33 133 -50 153 -42 14 5 16 15 9 74 -9 90
-12 110 -25 157 -6 22 -12 47 -14 55 -2 8 -9 35 -16 60 -7 25 -13 50 -15 55
-1 6 -4 17 -7 25 -3 8 -25 76 -48 150 -53 168 -126 353 -190 481 -62 124 -73
142 -85 151 -5 4 -6 8 -1 8 5 0 4 6 -2 13 -5 6 -33 57 -62 111 l-52 100 22 16
c12 9 45 23 74 30 76 19 107 37 99 58 -15 44 -273 350 -273 325 0 -4 -7 2 -15
14 -24 34 -254 216 -368 291 -56 37 -103 70 -105 75 -2 4 -8 7 -14 7 -6 0 -36
15 -67 34 -58 36 -313 166 -324 166 -4 0 -30 11 -59 24 -29 14 -96 39 -148 56
-52 18 -102 35 -110 38 -8 3 -24 7 -35 9 -28 6 -38 9 -55 16 -8 3 -28 8 -45
11 -16 2 -37 6 -45 9 -31 12 -99 18 -225 23 -104 3 -137 1 -167 -12z"/>
<path d="M3579 4462 c-14 -15 -63 -61 -109 -102 -115 -105 -124 -112 -151
-135 -13 -11 -49 -41 -80 -67 -31 -27 -59 -48 -63 -48 -6 0 -15 -6 -49 -35
-22 -20 -182 -130 -237 -165 -30 -19 -57 -37 -60 -40 -3 -4 -32 -21 -65 -40
-33 -19 -62 -36 -65 -40 -3 -3 -27 -20 -55 -37 -127 -81 -156 -136 -131 -248
7 -33 48 -159 54 -170 4 -5 7 -15 8 -20 1 -6 11 -31 22 -55 10 -25 32 -74 48
-110 45 -102 183 -371 199 -387 8 -8 15 -19 15 -24 0 -12 106 -184 126 -204 9
-8 13 -15 10 -15 -3 0 1 -8 8 -17 73 -90 128 -156 167 -198 26 -27 63 -68 83
-90 l35 -40 148 75 c81 41 177 91 212 112 34 21 67 38 72 38 5 0 9 5 9 10 0 6
4 10 10 10 5 0 31 16 57 36 27 20 61 45 78 57 158 116 418 387 485 505 8 14
21 32 27 40 19 20 90 173 98 212 4 19 10 39 13 44 16 27 7 85 -21 139 -16 31
-34 57 -38 57 -5 0 -9 5 -9 11 0 21 -155 199 -321 370 -58 60 -103 109 -101
109 3 0 -9 12 -25 28 -29 26 -161 174 -231 257 -19 22 -57 77 -85 122 -29 46
-54 82 -57 82 -3 0 -17 -12 -31 -27z"/>
<path d="M5631 4400 c-34 -51 -61 -96 -61 -101 0 -4 -6 -14 -13 -21 -7 -7 -32
-41 -56 -75 -24 -35 -48 -63 -52 -63 -5 0 -9 -5 -9 -10 0 -11 -25 -40 -140
-164 -106 -114 -193 -197 -389 -372 -30 -27 -75 -68 -100 -91 l-45 -42 37
-128 c21 -70 54 -162 74 -203 33 -68 100 -177 127 -206 6 -7 28 -34 49 -61 21
-27 87 -96 146 -153 119 -116 128 -125 221 -195 36 -28 67 -53 68 -57 2 -5 9
-8 16 -8 7 0 21 -8 32 -18 33 -30 152 -97 326 -183 l166 -83 25 30 c14 16 33
39 43 50 11 12 37 43 59 69 22 25 52 60 67 77 15 17 40 49 55 72 15 22 31 43
36 44 4 2 7 10 7 18 0 8 4 14 9 14 5 0 14 14 21 30 7 17 16 30 20 30 4 0 10 8
14 18 3 9 10 24 16 32 20 30 117 206 131 238 8 17 17 32 21 32 5 0 8 9 8 20 0
11 5 20 10 20 6 0 10 5 10 12 0 6 13 39 29 72 42 87 81 176 81 182 0 3 6 20
14 37 17 40 52 143 61 182 13 58 16 70 20 115 11 114 -17 148 -221 264 -45 25
-86 46 -92 46 -7 0 -12 5 -12 10 0 6 -5 10 -10 10 -13 0 -144 81 -148 92 -2 4
-8 8 -13 8 -14 0 -169 111 -258 185 -20 17 -41 35 -48 40 -24 20 -140 128
-215 202 l-76 75 -61 -92z"/>
<path d="M4637 2937 c-10 -12 -38 -62 -62 -112 -76 -155 -185 -293 -361 -455
-60 -55 -178 -150 -219 -176 -16 -10 -32 -21 -35 -24 -7 -7 -41 -27 -155 -88
-111 -59 -174 -99 -192 -122 -15 -18 -8 -60 16 -109 19 -37 129 -187 172 -235
61 -69 330 -337 383 -381 32 -28 66 -57 76 -66 79 -73 274 -194 328 -202 9 -1
22 -6 29 -10 18 -11 133 0 183 18 25 9 53 18 64 20 10 3 26 10 35 18 9 7 28
18 42 24 14 6 59 33 99 60 40 26 80 53 88 58 21 14 71 55 99 83 13 12 26 22
28 22 7 0 137 139 184 195 49 59 43 51 109 140 29 39 56 75 61 81 4 5 14 21
21 35 7 13 16 26 20 29 11 8 130 206 130 216 -1 9 -141 79 -149 75 -2 -2 -7 1
-10 6 -3 4 -37 24 -75 43 -78 39 -306 187 -306 199 0 3 -14 15 -32 26 -51 30
-269 252 -333 338 -31 44 -77 121 -101 172 -69 145 -98 171 -137 122z"/>
<path d="M3193 1826 c-29 -33 -81 -116 -133 -210 -71 -132 -172 -289 -251
-391 -106 -137 -165 -259 -173 -357 -4 -58 -21 -128 -38 -162 -45 -87 -52
-127 -31 -173 10 -21 28 -48 40 -60 13 -12 23 -26 23 -31 0 -5 7 -15 15 -22
18 -15 105 -192 105 -213 0 -9 4 -18 9 -22 5 -3 12 -18 16 -34 9 -43 53 -78
110 -88 76 -14 404 -5 485 13 14 3 35 7 48 10 74 15 201 82 250 131 7 7 16 13
20 13 4 0 21 13 39 28 17 15 48 41 70 58 56 47 92 84 98 104 3 10 1 36 -4 59
-9 41 -8 139 3 196 3 17 8 44 10 60 6 32 13 62 22 98 3 12 7 56 10 98 4 72 2
78 -31 134 -20 32 -45 66 -57 76 -11 11 -19 19 -16 19 3 0 -17 24 -46 53 -28
30 -85 91 -126 137 -41 45 -80 88 -85 94 -43 47 -169 201 -200 246 -22 30 -43
57 -47 58 -5 2 -8 9 -8 15 0 15 -79 87 -94 87 -7 0 -22 -11 -33 -24z"/>
<path d="M5983 1741 c-27 -27 -76 -86 -108 -132 -62 -87 -158 -211 -210 -268
-64 -72 -80 -89 -176 -189 -168 -173 -185 -244 -114 -457 29 -88 38 -130 42
-210 2 -55 9 -115 15 -133 9 -30 87 -122 103 -122 15 0 151 -106 201 -157 17
-18 44 -35 60 -38 16 -3 38 -8 49 -11 71 -18 500 -26 593 -11 74 12 87 24 98
96 5 34 60 160 74 171 17 13 85 119 106 164 23 53 38 146 22 146 -5 0 -7 4 -4
9 3 5 -10 24 -29 42 -33 32 -51 68 -60 121 -5 29 -16 109 -17 126 -1 6 -4 12
-8 12 -3 0 -12 16 -19 36 -17 48 -99 188 -164 282 -135 194 -152 217 -159 220
-4 2 -8 8 -8 13 0 6 -17 36 -38 67 -46 69 -75 120 -103 187 -42 101 -72 108
-146 36z"/>
</g>
</svg>
